<svg version="1" xmlns="http://www.w3.org/2000/svg" width="998.667" height="998.667" viewBox="0 0 749.000000 749.000000"><path d="M131.7 74.6c-.1.1-3.7.4-7.9.7-42.2 3.3-82.3 33.6-97.5 73.7-8.1 21.2-8.6 27.8-6.9 90.9l.6 23.5-2.9 6c-2.5 5.2-8.5 22.1-8.4 23.6 0 .3-.3 1.5-.8 2.8-.5 1.3-1.1 3.7-1.4 5.5-.4 1.8-1 5-1.5 7.2-1 4.7-1.6 8.8-2.5 17-.4 3.3-.9 7.3-1.1 8.9-1.1 7.1-.4 39.3 1.1 49.6.2 1.4.6 4.5 1 7 6.4 44.9 24.9 82.6 50.7 103 9.4 7.5 25.1 14.7 35.8 16.4 1.9.3 4.6.8 6 1.1 1.3.2 4 .7 6 .9 1.9.3 5.5.8 8 1.2 9.1 1.2 29.8.6 36-1.1.8-.2 3-.7 4.8-1 1.9-.3 6.1-1.5 9.5-2.7 20-6.8 36.4-20.2 57.7-47.2 5.1-6.4 9.3-11.6 9.6-11.6.2 0 1.1 1.5 2 3.2 3.3 6.6 12 17.2 18.1 22.3 5.4 4.4 13 8.8 21.8 12.6 8.2 3.5 29.6 5.4 42.7 3.7 6.6-.8 8.8 1.1 12.3 10.9 11.7 33.1 31 53.5 53 56.2 3.9.5 7.9.7 9 .5 1.1-.1 4.2-.5 6.9-.9 10.5-1.3 26.7-8.7 38.5-17.6 8.9-6.8 9.8-6.7 19.6 2.5 16.3 15.2 33.1 22.8 50.5 22.9 22.7 0 43.8-12.3 64.3-37.7 7.9-9.8 9.2-10.4 16.2-7.9 11.4 4 25.8 6.5 37.5 6.5 17-.2 28.8-4.7 38.9-15 9.5-9.7 16.1-24.7 17.8-40.2.3-3 .7-6.4.8-7.5.1-1.1.3-5.7.4-10.1.1-10.8.9-11.6 14.1-15.5 38.4-11.3 57.2-30.9 56.5-58.9-.5-16.4-6.7-33.3-18.6-50.5-5.3-7.8-5.6-9.1-3.4-15.5.8-2.4 1.7-5.5 2-6.9.3-1.4 1.1-5.9 1.9-9.9 1.6-8.7 1.5-27.4-.4-34.7-2-8.2-8.6-20.6-14.1-26.7-6.3-7.1-17.3-14.6-26.9-18.4-4-1.5-7.8-3.7-8.5-4.9-.7-1.1-1.5-7.1-1.9-14-.9-18.3-4.1-30.7-11-42.8-9.3-16.3-23.1-25.3-45.1-29.2-4.1-.7-22.1-.8-27 0-2.2.3-6.5 1.1-9.5 1.7-9.9 2-11.1 1.5-16.6-6.7-6.2-9.5-19-20.5-28.4-24.7-5.7-2.5-19.2-5.4-24.5-5.2-10.6.3-22.8 2.8-30.5 6.2-7.1 3.1-15.6 7.3-18.5 9.3-1.6 1-3.8 2.2-4.7 2.5-1 .4-1.8 1-1.8 1.4 0 1.2-4.4 2.7-6.7 2.4-1.2-.2-5.3-2.3-9-4.8-15.6-10-32.3-15.8-45.7-15.7-6 .1-9 .5-16.1 2.5-6.7 1.8-15.1 7-21.8 13.5-6.7 6.3-12.9 15.2-18.2 26-2.5 4.9-5 9.3-5.6 9.7-.6.4-9.3.8-19.3.9-21.4.3-33.4 2.5-46.1 8.4-15.6 7.4-24.8 17.6-30 33.4-2.4 7.4-2.8 10.3-2.8 20.4-.1 6.5.3 14.5.7 17.8l.8 6h-5.9c-5.2-.1-8.5.3-16.1 1.9-4.5 1-19.8 8.1-27.2 12.6-26.1 16.2-36.4 19.4-53 16.2-16.5-3-32.4-11.6-45.1-24.2-26.9-26.7-33.6-61-17.1-88.5 4.8-8 16.1-19 25.1-24.3 25.8-15.2 52.8-13.1 72.2 5.8 11 10.7 16.4 22 17.5 36.3 1.7 22-11.2 40.4-31.8 45.2-15.1 3.5-28.3-2-35.3-14.6-6.4-11.5-2.4-29.2 7.3-33 3.5-1.4 4.2-.3 2.5 3.8-3.7 9 .7 20.4 9.7 24.9 6.1 3.1 18.4 2.9 24.7-.4 10.4-5.4 15.4-14.7 14.8-27.4-.7-17.4-13.2-31.8-33.7-38.9-7.3-2.5-9.4-2.8-17.3-2.5-12.8.5-21.9 4.3-31.9 13.5-6.3 5.8-15.7 21-17 27.7-.3 1.1-.9 4.1-1.6 6.8-1.4 6.4-1.4 16.7 0 24.6 6.2 34.3 37.3 58.7 72 56.6 5.2-.3 10.2-.7 11-.9.8-.2 3.3-.7 5.5-1.2 11.9-2.4 28.3-12 38.5-22.5 9.5-9.6 18.7-25.9 20.5-36.1.3-1.8.7-3.5.9-3.8 1.6-2.6 2.3-20.1 1.1-29.1-1.5-11.8-8.2-31.8-12.1-36.1-.7-.8-1.4-1.9-1.4-2.3 0-.4-2.5-4.1-5.5-8.1C196.3 92 171.7 77.9 146 75.4c-6.4-.6-14-1.1-14.3-.8z"/><path d="M302 507.5c-.5 1.4-.8 5.1-.6 8.3.3 3.1.8 10.9 1.1 17.2.4 6.3.8 12.1 1 13 .2.8.6 4.9 1 9s.8 8.2 1 9c.1.8.6 4 1 7 .7 5.5 1.2 8.8 1.9 12.5.2 1.1.9 5.1 1.6 9 1.5 8.1 3.4 11.9 6.7 13.4 1.6.7 16 1.1 43.2 1.1h40.7l3.1-3c2.6-2.6 3.4-4.5 4.8-12.3 2.6-13.5 2.4-15.5-2-19.5-3.7-3.4-3.8-3.4-10.4-2.7-10.6 1.2-13.2 1.3-20.4.4-24.9-3.1-44.5-19.6-59.7-50.2-3.4-6.7-6.8-12.8-7.7-13.5-2.7-2-5.3-1.4-6.3 1.3zM579.6 535.5c-1.6.8-5.5 4.4-8.7 7.9-3.3 3.5-8.9 8.8-12.5 11.7-3.6 3-7.3 6.7-8.1 8.3-1.5 2.9-1.9 9.6-.8 14.6.3 1.4.8 3.8 1 5.5.2 1.6.8 4.8 1.2 7 .4 2.2.7 4.2.8 4.5.3 2.7 3.2 7.2 5.8 9.1l3.2 2.4 38 .3c25.4.2 39.2 0 41.7-.8 6.7-1.9 9-6.7 11.8-24.5.6-3.9 1.3-8.1 1.5-9.5.2-1.4.6-4.5.9-7 .3-2.5.8-6.7 1.1-9.5.9-6.8 0-10.6-3.3-14.2-4.6-5.1-10.2-6.1-21.2-3.6-6.7 1.4-29.1.4-35.3-1.7-5.7-1.9-14.1-2.2-17.1-.5zM330.8 616.8c-4.1.3-8.8 4.8-8.8 8.4 0 5.9 11.5 28.8 18.3 36.4 12 13.4 24.1 14.1 35.9 1.9 7.6-7.8 18.6-28.6 19.5-37 .7-5.7-2.8-9.5-9-9.6-21-.3-52.9-.3-55.9-.1zM579 617c-10.5.6-11.4.9-13.5 5-1.7 3.3-1.4 6.6 1.1 12.6 11.4 27.6 23.6 40.6 36.4 39.1 2.7-.3 6.2-1.3 7.8-2.1 4.7-2.4 12.3-10.8 16.8-18.2 5.2-8.9 11.4-23.8 11.4-27.6 0-3.9-4.8-8.8-8.7-8.8-26.6-.4-43.6-.4-51.3 0z"/></svg>